<mxfile host="65bd71144e">
    <diagram name="AWS MessageHash Architecture" id="FcLG9pCBlp_IIaaZ1BZP">
        <mxGraphModel dx="1715" dy="389" grid="1" gridSize="10" guides="1" tooltips="1" connect="1" arrows="1" fold="1" page="1" pageScale="1" pageWidth="850" pageHeight="1100" math="0" shadow="0">
            <root>
                <mxCell id="0"/>
                <mxCell id="1" parent="0"/>
                <mxCell id="NsBPkp4XyrDXrMT-YGY4-67" value="&lt;b&gt;&lt;font style=&quot;color: rgb(51, 51, 255);&quot;&gt;VPC&lt;/font&gt;&lt;/b&gt;" style="points=[[0,0],[0.25,0],[0.5,0],[0.75,0],[1,0],[1,0.25],[1,0.5],[1,0.75],[1,1],[0.75,1],[0.5,1],[0.25,1],[0,1],[0,0.75],[0,0.5],[0,0.25]];outlineConnect=0;gradientColor=none;html=1;whiteSpace=wrap;fontSize=12;fontStyle=0;container=1;pointerEvents=0;collapsible=0;recursiveResize=0;shape=mxgraph.aws4.group;grIcon=mxgraph.aws4.group_vpc;strokeColor=#248814;fillColor=none;verticalAlign=top;align=left;spacingLeft=30;fontColor=#AAB7B8;dashed=0;" parent="1" vertex="1">
                    <mxGeometry x="60" y="130" width="1000" height="650" as="geometry"/>
                </mxCell>
                <mxCell id="NsBPkp4XyrDXrMT-YGY4-68" value="&lt;b&gt;Availability Zone us-east-1a&lt;/b&gt;" style="fillColor=none;strokeColor=#147EBA;dashed=1;verticalAlign=top;fontStyle=0;fontColor=#147EBA;whiteSpace=wrap;html=1;" parent="NsBPkp4XyrDXrMT-YGY4-67" vertex="1">
                    <mxGeometry x="30" y="40" width="440" height="580" as="geometry"/>
                </mxCell>
                <mxCell id="NsBPkp4XyrDXrMT-YGY4-69" value="&lt;b&gt;Availability Zone us-east-1b&lt;/b&gt;" style="fillColor=none;strokeColor=#147EBA;dashed=1;verticalAlign=top;fontStyle=0;fontColor=#147EBA;whiteSpace=wrap;html=1;" parent="NsBPkp4XyrDXrMT-YGY4-67" vertex="1">
                    <mxGeometry x="530" y="40" width="440" height="580" as="geometry"/>
                </mxCell>
                <mxCell id="NsBPkp4XyrDXrMT-YGY4-70" value="Public subnet" style="points=[[0,0],[0.25,0],[0.5,0],[0.75,0],[1,0],[1,0.25],[1,0.5],[1,0.75],[1,1],[0.75,1],[0.5,1],[0.25,1],[0,1],[0,0.75],[0,0.5],[0,0.25]];outlineConnect=0;gradientColor=none;html=1;whiteSpace=wrap;fontSize=12;fontStyle=0;container=1;pointerEvents=0;collapsible=0;recursiveResize=0;shape=mxgraph.aws4.group;grIcon=mxgraph.aws4.group_security_group;grStroke=0;strokeColor=#248814;fillColor=#E9F3E6;verticalAlign=top;align=left;spacingLeft=30;fontColor=#248814;dashed=0;" parent="NsBPkp4XyrDXrMT-YGY4-67" vertex="1">
                    <mxGeometry x="50" y="80" width="400" height="180" as="geometry"/>
                </mxCell>
                <mxCell id="NsBPkp4XyrDXrMT-YGY4-71" value="NAT Gateway" style="sketch=0;outlineConnect=0;fontColor=#232F3E;gradientColor=none;fillColor=#4D27AA;strokeColor=none;dashed=0;verticalLabelPosition=bottom;verticalAlign=top;align=center;html=1;fontSize=12;fontStyle=0;aspect=fixed;pointerEvents=1;shape=mxgraph.aws4.nat_gateway;" parent="NsBPkp4XyrDXrMT-YGY4-70" vertex="1">
                    <mxGeometry x="181" y="60" width="78" height="78" as="geometry"/>
                </mxCell>
                <mxCell id="NsBPkp4XyrDXrMT-YGY4-73" value="Public subnet" style="points=[[0,0],[0.25,0],[0.5,0],[0.75,0],[1,0],[1,0.25],[1,0.5],[1,0.75],[1,1],[0.75,1],[0.5,1],[0.25,1],[0,1],[0,0.75],[0,0.5],[0,0.25]];outlineConnect=0;gradientColor=none;html=1;whiteSpace=wrap;fontSize=12;fontStyle=0;container=1;pointerEvents=0;collapsible=0;recursiveResize=0;shape=mxgraph.aws4.group;grIcon=mxgraph.aws4.group_security_group;grStroke=0;strokeColor=#248814;fillColor=#E9F3E6;verticalAlign=top;align=left;spacingLeft=30;fontColor=#248814;dashed=0;" parent="NsBPkp4XyrDXrMT-YGY4-67" vertex="1">
                    <mxGeometry x="550" y="80" width="400" height="180" as="geometry"/>
                </mxCell>
                <mxCell id="NsBPkp4XyrDXrMT-YGY4-74" value="Private subnet" style="points=[[0,0],[0.25,0],[0.5,0],[0.75,0],[1,0],[1,0.25],[1,0.5],[1,0.75],[1,1],[0.75,1],[0.5,1],[0.25,1],[0,1],[0,0.75],[0,0.5],[0,0.25]];outlineConnect=0;gradientColor=none;html=1;whiteSpace=wrap;fontSize=12;fontStyle=0;container=1;pointerEvents=0;collapsible=0;recursiveResize=0;shape=mxgraph.aws4.group;grIcon=mxgraph.aws4.group_security_group;grStroke=0;strokeColor=#147EBA;fillColor=#E6F2F8;verticalAlign=top;align=left;spacingLeft=30;fontColor=#147EBA;dashed=0;" parent="NsBPkp4XyrDXrMT-YGY4-67" vertex="1">
                    <mxGeometry x="50" y="280" width="400" height="320" as="geometry"/>
                </mxCell>
                <mxCell id="NsBPkp4XyrDXrMT-YGY4-75" value="Private subnet" style="points=[[0,0],[0.25,0],[0.5,0],[0.75,0],[1,0],[1,0.25],[1,0.5],[1,0.75],[1,1],[0.75,1],[0.5,1],[0.25,1],[0,1],[0,0.75],[0,0.5],[0,0.25]];outlineConnect=0;gradientColor=none;html=1;whiteSpace=wrap;fontSize=12;fontStyle=0;container=1;pointerEvents=0;collapsible=0;recursiveResize=0;shape=mxgraph.aws4.group;grIcon=mxgraph.aws4.group_security_group;grStroke=0;strokeColor=#147EBA;fillColor=#E6F2F8;verticalAlign=top;align=left;spacingLeft=30;fontColor=#147EBA;dashed=0;" parent="NsBPkp4XyrDXrMT-YGY4-67" vertex="1">
                    <mxGeometry x="550" y="280" width="400" height="320" as="geometry"/>
                </mxCell>
                <mxCell id="NsBPkp4XyrDXrMT-YGY4-72" value="Elastic Load Balancer" style="sketch=0;outlineConnect=0;fontColor=#232F3E;gradientColor=none;fillColor=#4D27AA;strokeColor=none;dashed=0;verticalLabelPosition=bottom;verticalAlign=top;align=center;html=1;fontSize=12;fontStyle=0;aspect=fixed;pointerEvents=1;shape=mxgraph.aws4.classic_load_balancer;" parent="NsBPkp4XyrDXrMT-YGY4-67" vertex="1">
                    <mxGeometry x="461" y="131" width="78" height="78" as="geometry"/>
                </mxCell>
                <mxCell id="NsBPkp4XyrDXrMT-YGY4-82" value="Service&#xa;(type: LoadBalancer)" style="sketch=0;html=1;dashed=0;whitespace=wrap;fillColor=#2875E2;strokeColor=#ffffff;points=[[0.005,0.63,0],[0.1,0.2,0],[0.9,0.2,0],[0.5,0,0],[0.995,0.63,0],[0.72,0.99,0],[0.5,1,0],[0.28,0.99,0]];verticalLabelPosition=bottom;align=center;verticalAlign=top;shape=mxgraph.kubernetes.icon;prIcon=svc" parent="NsBPkp4XyrDXrMT-YGY4-67" vertex="1">
                    <mxGeometry x="350" y="372" width="50" height="48" as="geometry"/>
                </mxCell>
                <mxCell id="3" style="edgeStyle=none;html=1;entryX=0.5;entryY=0;entryDx=0;entryDy=0;entryPerimeter=0;" edge="1" parent="NsBPkp4XyrDXrMT-YGY4-67" source="NsBPkp4XyrDXrMT-YGY4-72" target="NsBPkp4XyrDXrMT-YGY4-82">
                    <mxGeometry relative="1" as="geometry"/>
                </mxCell>
                <mxCell id="2" style="edgeStyle=none;html=1;" edge="1" parent="1" source="NsBPkp4XyrDXrMT-YGY4-76" target="NsBPkp4XyrDXrMT-YGY4-72">
                    <mxGeometry relative="1" as="geometry"/>
                </mxCell>
                <mxCell id="NsBPkp4XyrDXrMT-YGY4-76" value="Internet Gateway" style="sketch=0;outlineConnect=0;fontColor=#232F3E;gradientColor=none;fillColor=#4D27AA;strokeColor=none;dashed=0;verticalLabelPosition=bottom;verticalAlign=top;align=center;html=1;fontSize=12;fontStyle=0;aspect=fixed;pointerEvents=1;shape=mxgraph.aws4.internet_gateway;" parent="1" vertex="1">
                    <mxGeometry x="521" y="50" width="78" height="78" as="geometry"/>
                </mxCell>
                <mxCell id="NsBPkp4XyrDXrMT-YGY4-77" value="Amazon ECR" style="sketch=0;outlineConnect=0;fontColor=#232F3E;gradientColor=none;fillColor=#D45B07;strokeColor=none;dashed=0;verticalLabelPosition=bottom;verticalAlign=top;align=center;html=1;fontSize=12;fontStyle=0;aspect=fixed;pointerEvents=1;shape=mxgraph.aws4.container_registry_image;" parent="1" vertex="1">
                    <mxGeometry x="110" y="680" width="78" height="78" as="geometry"/>
                </mxCell>
                <mxCell id="NsBPkp4XyrDXrMT-YGY4-78" value="Amazon DynamoDB" style="sketch=0;outlineConnect=0;fontColor=#232F3E;gradientColor=none;fillColor=#2E27AD;strokeColor=none;dashed=0;verticalLabelPosition=bottom;verticalAlign=top;align=center;html=1;fontSize=12;fontStyle=0;aspect=fixed;pointerEvents=1;shape=mxgraph.aws4.dynamodb;" parent="1" vertex="1">
                    <mxGeometry x="940" y="680" width="78" height="78" as="geometry"/>
                </mxCell>
                <mxCell id="NsBPkp4XyrDXrMT-YGY4-79" value="EKS Cluster" style="points=[[0,0],[0.25,0],[0.5,0],[0.75,0],[1,0],[1,0.25],[1,0.5],[1,0.75],[1,1],[0.75,1],[0.5,1],[0.25,1],[0,1],[0,0.75],[0,0.5],[0,0.25]];outlineConnect=0;gradientColor=none;html=1;whiteSpace=wrap;fontSize=12;fontStyle=0;container=1;pointerEvents=0;collapsible=0;recursiveResize=0;shape=mxgraph.aws4.group;grIcon=mxgraph.aws4.group_elastic_beanstalk;strokeColor=#D86613;fillColor=none;verticalAlign=top;align=left;spacingLeft=30;fontColor=#D86613;dashed=0;" parent="1" vertex="1">
                    <mxGeometry x="260" y="430" width="600" height="180" as="geometry"/>
                </mxCell>
                <mxCell id="NsBPkp4XyrDXrMT-YGY4-80" value="Amazon EKS&#xa;(Single Node Group)" style="sketch=0;outlineConnect=0;fontColor=#232F3E;gradientColor=none;fillColor=#D45B07;strokeColor=none;dashed=0;verticalLabelPosition=bottom;verticalAlign=top;align=center;html=1;fontSize=12;fontStyle=0;aspect=fixed;pointerEvents=1;shape=mxgraph.aws4.eks_cloud;" parent="NsBPkp4XyrDXrMT-YGY4-79" vertex="1">
                    <mxGeometry x="261" y="51" width="78" height="78" as="geometry"/>
                </mxCell>
                <mxCell id="NsBPkp4XyrDXrMT-YGY4-81" value="Pod&#xa;MessageHash App" style="sketch=0;html=1;dashed=0;whitespace=wrap;fillColor=#2875E2;strokeColor=#ffffff;points=[[0.005,0.63,0],[0.1,0.2,0],[0.9,0.2,0],[0.5,0,0],[0.995,0.63,0],[0.72,0.99,0],[0.5,1,0],[0.28,0.99,0]];verticalLabelPosition=bottom;align=center;verticalAlign=top;shape=mxgraph.kubernetes.icon;prIcon=pod" parent="NsBPkp4XyrDXrMT-YGY4-79" vertex="1">
                    <mxGeometry x="400" y="66" width="50" height="48" as="geometry"/>
                </mxCell>
                <mxCell id="NsBPkp4XyrDXrMT-YGY4-85" value="" style="edgeStyle=orthogonalEdgeStyle;html=1;endArrow=block;elbow=vertical;startArrow=none;endFill=1;strokeColor=#545B64;rounded=0;dashed=1;fontStyle=1" parent="1" source="NsBPkp4XyrDXrMT-YGY4-80" target="NsBPkp4XyrDXrMT-YGY4-77" edge="1">
                    <mxGeometry width="100" relative="1" as="geometry">
                        <mxPoint x="410" y="400" as="sourcePoint"/>
                        <mxPoint x="510" y="400" as="targetPoint"/>
                        <Array as="points">
                            <mxPoint x="560" y="660"/>
                            <mxPoint x="149" y="660"/>
                        </Array>
                    </mxGeometry>
                </mxCell>
                <mxCell id="NsBPkp4XyrDXrMT-YGY4-86" value="Pull Images" style="edgeLabel;html=1;align=center;verticalAlign=middle;resizable=0;points=[];fontStyle=1" parent="NsBPkp4XyrDXrMT-YGY4-85" vertex="1" connectable="0">
                    <mxGeometry x="0.0242" y="-4" relative="1" as="geometry">
                        <mxPoint as="offset"/>
                    </mxGeometry>
                </mxCell>
                <mxCell id="NsBPkp4XyrDXrMT-YGY4-87" value="" style="edgeStyle=orthogonalEdgeStyle;html=1;endArrow=block;elbow=vertical;startArrow=none;endFill=1;strokeColor=#545B64;rounded=0;dashed=1;" parent="1" source="NsBPkp4XyrDXrMT-YGY4-79" target="NsBPkp4XyrDXrMT-YGY4-78" edge="1">
                    <mxGeometry width="100" relative="1" as="geometry">
                        <mxPoint x="410" y="400" as="sourcePoint"/>
                        <mxPoint x="510" y="400" as="targetPoint"/>
                        <Array as="points">
                            <mxPoint x="560" y="660"/>
                            <mxPoint x="979" y="660"/>
                        </Array>
                    </mxGeometry>
                </mxCell>
                <mxCell id="NsBPkp4XyrDXrMT-YGY4-88" value="&lt;b&gt;Pod Identity Access&lt;/b&gt;" style="edgeLabel;html=1;align=center;verticalAlign=middle;resizable=0;points=[];" parent="NsBPkp4XyrDXrMT-YGY4-87" vertex="1" connectable="0">
                    <mxGeometry x="0.0747" y="-1" relative="1" as="geometry">
                        <mxPoint as="offset"/>
                    </mxGeometry>
                </mxCell>
                <mxCell id="NsBPkp4XyrDXrMT-YGY4-89" value="MessageHash Application&#xa;- SHA256 hash generation&#xa;- Message lookup in DynamoDB" style="rounded=1;whiteSpace=wrap;html=1;strokeColor=#d6b656;fillColor=#fff2cc;" parent="1" vertex="1">
                    <mxGeometry x="-30" y="59" width="250" height="71" as="geometry"/>
                </mxCell>
                <mxCell id="NsBPkp4XyrDXrMT-YGY4-90" value="" style="edgeStyle=orthogonalEdgeStyle;html=1;endArrow=block;elbow=vertical;startArrow=none;endFill=1;strokeColor=#545B64;rounded=0;" parent="1" source="NsBPkp4XyrDXrMT-YGY4-71" target="NsBPkp4XyrDXrMT-YGY4-73" edge="1">
                    <mxGeometry width="100" relative="1" as="geometry">
                        <mxPoint x="320" y="230" as="sourcePoint"/>
                        <mxPoint x="510" y="400" as="targetPoint"/>
                        <Array as="points">
                            <mxPoint x="370" y="230"/>
                            <mxPoint x="760" y="230"/>
                        </Array>
                    </mxGeometry>
                </mxCell>
                <mxCell id="NsBPkp4XyrDXrMT-YGY4-91" value="Route Table Association" style="edgeLabel;html=1;align=center;verticalAlign=middle;resizable=0;points=[];" parent="NsBPkp4XyrDXrMT-YGY4-90" vertex="1" connectable="0">
                    <mxGeometry x="0.0747" y="-1" relative="1" as="geometry">
                        <mxPoint as="offset"/>
                    </mxGeometry>
                </mxCell>
                <mxCell id="NsBPkp4XyrDXrMT-YGY4-92" style="edgeStyle=orthogonalEdgeStyle;rounded=0;orthogonalLoop=1;jettySize=auto;html=1;" parent="1" source="NsBPkp4XyrDXrMT-YGY4-79" target="NsBPkp4XyrDXrMT-YGY4-71" edge="1">
                    <mxGeometry relative="1" as="geometry"/>
                </mxCell>
                <mxCell id="NsBPkp4XyrDXrMT-YGY4-83" value="" style="edgeStyle=orthogonalEdgeStyle;rounded=0;orthogonalLoop=1;jettySize=auto;html=1;" parent="1" source="NsBPkp4XyrDXrMT-YGY4-82" target="NsBPkp4XyrDXrMT-YGY4-81" edge="1">
                    <mxGeometry relative="1" as="geometry"/>
                </mxCell>
            </root>
        </mxGraphModel>
    </diagram>
</mxfile>